<svg xmlns="http://www.w3.org/2000/svg" viewBox="0 0 240 240" width="240" height="240">
  <defs>
    <style>
      .ms-wordmark { font-family: 'Fraunces', 'Georgia', serif; }
    </style>
  </defs>

  <circle cx="120" cy="120" r="118" fill="#1B2E35"/>

  <!-- scalloped outer ring -->
  <g fill="none" stroke="#D9A441" stroke-width="1.4">
    <circle cx="120" cy="120" r="108"/>
    <circle cx="120" cy="120" r="100"/>
  </g>

  <g stroke="#D9A441" stroke-width="1.2">
    <line x1="120" y1="12" x2="120" y2="20"/>
    <line x1="120" y1="220" x2="120" y2="228"/>
    <line x1="12" y1="120" x2="20" y2="120"/>
    <line x1="220" y1="120" x2="228" y2="120"/>
    <line x1="44.5" y1="44.5" x2="50.2" y2="50.2"/>
    <line x1="195.5" y1="44.5" x2="189.8" y2="50.2"/>
    <line x1="44.5" y1="195.5" x2="50.2" y2="189.8"/>
    <line x1="195.5" y1="195.5" x2="189.8" y2="189.8"/>
    <line x1="73" y1="20.5" x2="76.6" y2="27.6"/>
    <line x1="167" y1="20.5" x2="163.4" y2="27.6"/>
    <line x1="73" y1="219.5" x2="76.6" y2="212.4"/>
    <line x1="167" y1="219.5" x2="163.4" y2="212.4"/>
    <line x1="20.5" y1="73" x2="27.6" y2="76.6"/>
    <line x1="20.5" y1="167" x2="27.6" y2="163.4"/>
    <line x1="219.5" y1="73" x2="212.4" y2="76.6"/>
    <line x1="219.5" y1="167" x2="212.4" y2="163.4"/>
  </g>

  <circle cx="120" cy="120" r="84" fill="none" stroke="#D9A441" stroke-width="1"/>

  <rect x="116.5" y="63" width="7" height="7" fill="#C1532B" transform="rotate(45 120 66.5)"/>
  <rect x="116.5" y="170" width="7" height="7" fill="#C1532B" transform="rotate(45 120 173.5)"/>

  <text x="120" y="132" text-anchor="middle" class="ms-wordmark" font-size="72" fill="#FBF3E9" font-weight="500" letter-spacing="-3">MS</text>

  <path d="M 76 162 Q 96 178, 120 173 Q 148 167, 164 154" fill="none" stroke="#C1532B" stroke-width="1.8" stroke-linecap="round"/>

  <text x="120" y="56" text-anchor="middle" font-family="'Work Sans', Arial, sans-serif" font-size="10.5" letter-spacing="4" fill="#FBF3E9">STUDIO</text>
  <text x="120" y="190" text-anchor="middle" font-family="'Work Sans', Arial, sans-serif" font-size="10.5" letter-spacing="3.5" fill="#FBF3E9">MARY SABOYA</text>
</svg>
